<svg id="Layer_1" data-name="Layer 1" xmlns="http://www.w3.org/2000/svg" viewBox="0 0 221.14 333.21"><defs><style>.cls-1{fill:#fff;}.cls-2{fill:#3c3c3b;}.cls-3{fill:#8b1812;}.cls-4{fill:none;}.cls-5{fill:#ededed;}</style></defs><title>Car1</title><rect class="cls-1" x="14.93" y="44.51" width="191.27" height="244.19"/><ellipse class="cls-1" cx="71.16" cy="44.51" rx="56.23" ry="44.51"/><rect class="cls-1" x="68.74" width="83.67" height="40.42"/><ellipse class="cls-1" cx="149.98" cy="44.51" rx="56.23" ry="44.51"/><ellipse class="cls-1" cx="71.16" cy="288.7" rx="56.23" ry="44.51"/><rect class="cls-1" x="68.74" y="292.78" width="83.67" height="40.42"/><ellipse class="cls-1" cx="149.98" cy="288.7" rx="56.23" ry="44.51"/><rect class="cls-2" x="68.74" y="89.02" width="83.67" height="27.24"/><path class="cls-3" d="M306.08,350.86,329,390.54,291.83,412v4.56c24.47-.83,44.9-14,51.53-31.9l-9.16-39.21.21-.05c-10.26-10.82-26.6-17.82-45-17.82-31.05,0-56.23,19.93-56.23,44.51A36.71,36.71,0,0,0,238,390.16Z" transform="translate(-139.43 -83.4)"/><path class="cls-3" d="M193.92,350.86,171,390.54,208.17,412v4.56c-24.47-.83-44.9-14-51.53-31.9l9.16-39.21-.21-.05c10.26-10.82,26.6-17.82,45-17.82,31,0,56.23,19.93,56.23,44.51A36.71,36.71,0,0,1,262,390.16Z" transform="translate(-139.43 -83.4)"/><rect class="cls-2" x="68.74" y="286.31" width="83.67" height="27.24"/><rect class="cls-2" x="17.14" y="120.61" width="186.85" height="173.3"/><path class="cls-2" d="M156.91,207.51c3,15.8,26.31,28.08,54.59,28.08,30.34,0,54.93-14.14,54.93-31.59s-24.59-31.58-54.93-31.58c-29.27,0-53.19,13.16-54.84,29.75Z" transform="translate(-139.43 -83.4)"/><rect class="cls-2" x="69.7" y="89.02" width="81.73" height="28.69"/><path class="cls-2" d="M343.09,207.51c-3,15.8-26.31,28.08-54.59,28.08-30.34,0-54.93-14.14-54.93-31.59s24.59-31.58,54.93-31.58c29.27,0,53.19,13.16,54.84,29.75Z" transform="translate(-139.43 -83.4)"/><ellipse class="cls-2" cx="72.07" cy="293.9" rx="54.93" ry="31.59"/><rect class="cls-2" x="69.7" y="296.8" width="81.73" height="28.69"/><ellipse class="cls-2" cx="149.07" cy="293.9" rx="54.93" ry="31.59"/><rect class="cls-1" x="22.16" y="145.76" width="176.82" height="139.84"/><ellipse class="cls-1" cx="74.14" cy="145.76" rx="51.98" ry="25.49"/><rect class="cls-1" x="71.9" y="120.27" width="77.34" height="23.15"/><ellipse class="cls-1" cx="147" cy="145.76" rx="51.98" ry="25.49"/><ellipse class="cls-1" cx="74.14" cy="285.6" rx="51.98" ry="26.16"/><rect class="cls-1" x="71.9" y="288.01" width="77.34" height="23.76"/><ellipse class="cls-1" cx="147" cy="285.6" rx="51.98" ry="26.16"/><line class="cls-4" x1="68.74" y1="333.16" x2="68.74" y2="328.6"/><path class="cls-5" d="M207.63,85.58l-12.91,10h0c-3,1.48-6,3.13-9.11,4.92-4.07,2.35-7.89,4.76-11.34,7.13l-13.58,6.86c-1.14-4.36,7.61-13.36,20.38-20.73C192.25,87.29,203,84.12,207.63,85.58Z" transform="translate(-139.43 -83.4)"/><path class="cls-5" d="M291.83,85.58l12.91,10h0c2.95,1.48,6,3.13,9.11,4.92,4.07,2.35,7.89,4.76,11.34,7.13l13.58,6.86c1.14-4.36-7.61-13.36-20.38-20.73C307.21,87.29,296.46,84.12,291.83,85.58Z" transform="translate(-139.43 -83.4)"/><path class="cls-1" d="M360.19,216.72a3,3,0,0,1-1.68,1.24,90.5,90.5,0,0,0-11.35-8.09q-2.07-1.26-4.07-2.36a17.85,17.85,0,0,0,.34-3.51q0-.92-.09-1.83a21.71,21.71,0,0,1,9,3.31C358.27,209.09,361.77,214.13,360.19,216.72Z" transform="translate(-139.43 -83.4)"/><path class="cls-1" d="M156.91,207.51q-2,1.1-4.07,2.36A90.5,90.5,0,0,0,141.49,218a3,3,0,0,1-1.68-1.24c-1.58-2.59,1.92-7.63,7.83-11.24a21.71,21.71,0,0,1,9-3.31q-.09.92-.09,1.83A17.85,17.85,0,0,0,156.91,207.51Z" transform="translate(-139.43 -83.4)"/></svg>