<svg id="Layer_1" data-name="Layer 1" xmlns="http://www.w3.org/2000/svg" viewBox="0 0 2000 2000"><defs><style>.cls-1{fill:#c6c6c6;}.cls-2{fill:#ededed;}</style></defs><title>Town</title><path class="cls-1" d="M1652.56,262.78H347.44a84.67,84.67,0,0,0-84.66,84.66V1652.56a84.67,84.67,0,0,0,84.66,84.66H1652.56a84.67,84.67,0,0,0,84.66-84.66V347.44A84.67,84.67,0,0,0,1652.56,262.78Zm-121.78,1268H469.22V469.22H1530.78Z"/><rect class="cls-1" x="262.78" width="206.44" height="418.18"/><rect class="cls-1" x="262.78" y="1581.82" width="206.44" height="418.18"/><rect class="cls-1" x="1530.78" y="1581.82" width="206.44" height="418.18"/><rect class="cls-1" x="1687.69" y="156.91" width="206.44" height="418.18" transform="translate(2156.91 -1424.91) rotate(90)"/><rect class="cls-1" x="105.87" y="156.91" width="206.44" height="418.18" transform="translate(575.09 156.91) rotate(90)"/><rect class="cls-1" x="1687.69" y="1424.91" width="206.44" height="418.18" transform="translate(3424.91 -156.91) rotate(90)"/><rect class="cls-1" x="105.87" y="1424.91" width="206.44" height="418.18" transform="translate(1843.09 1424.91) rotate(90)"/><rect class="cls-1" x="1530.78" width="206.44" height="418.18"/><rect class="cls-2" x="518.14" y="518.14" width="659.32" height="204.59"/><rect class="cls-2" x="518.14" y="708" width="229.77" height="377.27"/><rect class="cls-2" x="518.14" y="1235.27" width="369.27" height="246.59"/><rect class="cls-1" x="588.63" y="778.27" width="103.22" height="754.92" transform="translate(1795.97 515.49) rotate(90)"/><rect class="cls-1" x="914.48" y="1104.12" width="103.22" height="633.1" transform="translate(1932.18 2841.34) rotate(180)"/><rect class="cls-2" x="1038.28" y="951.18" width="202.81" height="530.68"/><rect class="cls-2" x="1279.05" y="1235.27" width="202.81" height="246.59"/><rect class="cls-2" x="1279.05" y="951.18" width="202.81" height="246.59"/><rect class="cls-1" x="914.48" y="821.64" width="103.22" height="282.48" transform="translate(1932.18 1925.75) rotate(180)"/><rect class="cls-1" x="1274.24" y="461.88" width="103.22" height="822.74" transform="translate(2199.1 -452.6) rotate(90)"/><rect class="cls-2" x="1252.09" y="518.14" width="229.77" height="284.76"/><rect class="cls-2" x="1771.5" y="1048.91" width="202.81" height="432.95"/><rect class="cls-2" x="1771.5" y="805.16" width="202.81" height="202.81"/><rect class="cls-2" x="1771.5" y="518.14" width="202.81" height="246.59"/><rect class="cls-2" x="1150.68" y="-90.41" width="202.81" height="432.95" transform="translate(1378.16 -1126.03) rotate(90)"/><rect class="cls-2" x="633.21" y="-90.41" width="202.81" height="432.95" transform="translate(860.68 -608.55) rotate(90)"/><rect class="cls-2" x="1771.5" y="24.66" width="202.81" height="202.81" transform="translate(1998.97 -1746.84) rotate(90)"/><rect class="cls-2" x="1771.5" y="1773.64" width="202.81" height="202.81" transform="translate(3747.95 2.14) rotate(90)"/><rect class="cls-2" x="1122.39" y="1602.34" width="202.81" height="545.41" transform="translate(3098.84 651.25) rotate(90)"/><rect class="cls-2" x="613.36" y="1678.41" width="202.81" height="393.27" transform="translate(2589.82 1160.27) rotate(90)"/><rect class="cls-2" x="30.59" y="1773.64" width="202.81" height="202.81" transform="translate(2007.05 1743.05) rotate(90)"/><rect class="cls-2" x="30.59" y="24.66" width="202.81" height="202.81" transform="translate(258.06 -5.94) rotate(90)"/><rect class="cls-2" x="-102.79" y="644.53" width="469.59" height="202.81" transform="translate(877.93 613.93) rotate(90)"/><rect class="cls-2" x="30.59" y="1012.27" width="202.81" height="202.81" transform="translate(1245.68 981.68) rotate(90)"/><rect class="cls-2" x="19.65" y="1268.1" width="224.7" height="202.81" transform="translate(1501.51 1237.51) rotate(90)"/></svg>